<svg xmlns="http://www.w3.org/2000/svg" xmlns:xlink="http://www.w3.org/1999/xlink" width="75" height="75.759" viewBox="0 0 75 75.759">
  <defs>
    <clipPath id="clip-path">
      <path id="패스_204" data-name="패스 204" d="M-3656.893,7933.133l14.627,18.115,44.3-2.2,1.381-21.462-11.889-20.7Z" transform="translate(3655.55 -7906.41)" fill="#033464"/>
    </clipPath>
  </defs>
  <g id="그룹_164" data-name="그룹 164" transform="translate(-872 -901)">
    <g id="그룹_161" data-name="그룹 161">
      <circle id="타원_59" data-name="타원 59" cx="37.5" cy="37.5" r="37.5" transform="translate(872 901)" fill="#0e4f9f"/>
      <g id="마스크_그룹_11" data-name="마스크 그룹 11" transform="translate(887.017 931.92)" clip-path="url(#clip-path)">
        <circle id="타원_60" data-name="타원 60" cx="37.5" cy="37.5" r="37.5" transform="translate(-15.017 -30.92)" fill="#002c62"/>
      </g>
    </g>
    <g id="그룹_160" data-name="그룹 160" transform="translate(885.45 908.922)">
      <path id="패스_198" data-name="패스 198" d="M-4399.69,9903.2h-18.1s-1.883-.229-2.764.609-.718,2.756-.718,2.756v20.445a3.505,3.505,0,0,0,.974,2.752,5.258,5.258,0,0,0,3.139.768h17.467s.1,3.061,2.905,2.955" transform="translate(4421.281 -9881.102)" fill="#01509f" stroke="#fff" stroke-linecap="round" stroke-linejoin="round" stroke-width="1.5"/>
      <path id="패스_199" data-name="패스 199" d="M-4371.74,9906.313a2.7,2.7,0,0,0-2.949-3.277h-13.823c-2.416,0-2.965.09-3.612-.578s-.553-2.945-.553-2.945v-20.152a3.915,3.915,0,0,1,.806-2.172,3.044,3.044,0,0,1,2.02-.775h14.69s2.015-.031,2.872,1.06.55,3.31.55,3.31v20.32" transform="translate(4396.136 -9858.104)" fill="#01509f" stroke="#fff" stroke-linecap="round" stroke-linejoin="round" stroke-width="1.5"/>
      <line id="선_104" data-name="선 104" x2="7.287" transform="translate(8.563 28.81)" fill="none" stroke="#fff" stroke-linecap="round" stroke-width="1.5"/>
      <line id="선_105" data-name="선 105" x2="11.979" transform="translate(7.465 33.202)" fill="none" stroke="#fff" stroke-linecap="round" stroke-width="1.5"/>
      <line id="선_106" data-name="선 106" x2="11.979" transform="translate(7.465 36.796)" fill="none" stroke="#fff" stroke-linecap="round" stroke-width="1.5"/>
      <line id="선_109" data-name="선 109" y2="6.688" transform="translate(24.435 -2)" fill="none" stroke="#fff" stroke-linecap="round" stroke-width="1.5"/>
      <line id="선_107" data-name="선 107" y2="6.688" transform="translate(7.464 7.858) rotate(-60)" fill="none" stroke="#fff" stroke-linecap="round" stroke-width="1.5"/>
      <line id="선_110" data-name="선 110" y2="6.688" transform="translate(41.606 7.858) rotate(60)" fill="none" stroke="#fff" stroke-linecap="round" stroke-width="1.5"/>
      <line id="선_108" data-name="선 108" x2="2.296" y2="3.594" transform="translate(15.85 2.991)" fill="none" stroke="#fff" stroke-linecap="round" stroke-width="1.5"/>
      <line id="선_111" data-name="선 111" x2="2.296" y2="3.594" transform="matrix(0.438, 0.899, -0.899, 0.438, 33.084, 2.969)" fill="none" stroke="#fff" stroke-linecap="round" stroke-width="1.5"/>
      <path id="패스_200" data-name="패스 200" d="M-4418.376,9903.2h18.1s1.882-.229,2.764.609.719,2.756.719,2.756v20.445a3.5,3.5,0,0,1-.974,2.752,5.258,5.258,0,0,1-3.139.768h-17.467s-.1,3.061-2.9,2.955" transform="translate(4445.339 -9881.102)" fill="#01509f" stroke="#fff" stroke-linecap="round" stroke-linejoin="round" stroke-width="1.5"/>
      <path id="패스_201" data-name="패스 201" d="M-4392.5,9906.314a2.7,2.7,0,0,1,2.949-3.278h13.824c2.415,0,2.964.09,3.612-.579s.553-2.944.553-2.944V9879.36a3.92,3.92,0,0,0-.807-2.173,3.037,3.037,0,0,0-2.02-.773h-14.69a4.168,4.168,0,0,0-2.665,1.214,5.689,5.689,0,0,0-.757,3.154v20.32" transform="translate(4416.854 -9858.106)" fill="#01509f" stroke="#fff" stroke-linecap="round" stroke-linejoin="round" stroke-width="1.5"/>
      <g id="패스_203" data-name="패스 203" transform="translate(4053.156 -10036.081)" fill="#fff" stroke-linecap="round" stroke-linejoin="round">
        <path d="M -4012.006591796875 10084.11328125 L -4012.27685546875 10083.46875 L -4013.840087890625 10079.7353515625 L -4016.197265625 10081.0146484375 L -4017.304931640625 10081.6162109375 L -4017.304931640625 10080.35546875 L -4017.304931640625 10067.6943359375 L -4017.304931640625 10065.96484375 L -4016.04248046875 10067.146484375 L -4006.84423828125 10075.7578125 L -4005.906982421875 10076.6357421875 L -4007.13134765625 10077.021484375 L -4009.76416015625 10077.849609375 L -4008.112060546875 10081.95703125 L -4007.816162109375 10082.693359375 L -4008.567138671875 10082.947265625 L -4011.34423828125 10083.888671875 L -4012.006591796875 10084.11328125 Z" stroke="none"/>
        <path d="M -4016.554931640625 10067.6943359375 L -4016.554931640625 10080.35546875 L -4013.46875 10078.6806640625 L -4011.5849609375 10083.1787109375 L -4008.807861328125 10082.2373046875 L -4010.762451171875 10077.3779296875 L -4007.356689453125 10076.3056640625 L -4016.554931640625 10067.6943359375 M -4016.55517578125 10066.1943359375 C -4016.181640625 10066.1943359375 -4015.813232421875 10066.333984375 -4015.52978515625 10066.599609375 L -4006.33154296875 10075.2109375 C -4005.9423828125 10075.5751953125 -4005.77587890625 10076.1181640625 -4005.89404296875 10076.638671875 C -4006.012451171875 10077.158203125 -4006.397705078125 10077.576171875 -4006.90625 10077.736328125 L -4008.765869140625 10078.322265625 L -4007.416259765625 10081.677734375 C -4007.262451171875 10082.0595703125 -4007.272705078125 10082.4892578125 -4007.44482421875 10082.86328125 C -4007.616943359375 10083.23828125 -4007.935791015625 10083.525390625 -4008.326171875 10083.658203125 L -4011.103271484375 10084.599609375 C -4011.2626953125 10084.6533203125 -4011.425048828125 10084.6787109375 -4011.5849609375 10084.6787109375 C -4012.174072265625 10084.6787109375 -4012.729248046875 10084.330078125 -4012.968505859375 10083.7578125 L -4014.21142578125 10080.7900390625 L -4015.83935546875 10081.673828125 C -4016.062744140625 10081.794921875 -4016.30908203125 10081.85546875 -4016.554931640625 10081.85546875 C -4016.820556640625 10081.85546875 -4017.0859375 10081.78515625 -4017.322021484375 10081.64453125 C -4017.7763671875 10081.3740234375 -4018.054931640625 10080.884765625 -4018.054931640625 10080.35546875 L -4018.054931640625 10067.6943359375 C -4018.054931640625 10067.0966796875 -4017.699951171875 10066.5556640625 -4017.151611328125 10066.318359375 C -4016.959716796875 10066.2353515625 -4016.756591796875 10066.1943359375 -4016.55517578125 10066.1943359375 Z" stroke="none" fill="#0354a5"/>
      </g>
    </g>
  </g>
</svg>
