<svg xmlns="http://www.w3.org/2000/svg" xmlns:xlink="http://www.w3.org/1999/xlink" width="75.429" height="76.267" viewBox="0 0 75.429 76.267">
  <defs>
    <clipPath id="clip-path">
      <path id="패스_205" data-name="패스 205" d="M-3654.244,7929.554l16.676,22.2,39.6-2.709,2.827-27.016-17.517-23.985-22.355,9.8Z" transform="translate(3655.55 -7906.41)" fill="#033464"/>
    </clipPath>
  </defs>
  <g id="그룹_163" data-name="그룹 163" transform="translate(-1274 -901)">
    <g id="그룹_162" data-name="그룹 162">
      <circle id="타원_61" data-name="타원 61" cx="37.5" cy="37.5" r="37.5" transform="translate(1274 901)" fill="#0e4f9f"/>
      <g id="마스크_그룹_12" data-name="마스크 그룹 12" transform="translate(1289.017 931.92)" clip-path="url(#clip-path)">
        <circle id="타원_62" data-name="타원 62" cx="37.5" cy="37.5" r="37.5" transform="translate(-15.017 -30.92)" fill="#002c62"/>
      </g>
    </g>
    <g id="그룹_159" data-name="그룹 159" transform="translate(1289.693 903.443)">
      <g id="그룹_157" data-name="그룹 157" transform="translate(0.111 0)">
        <g id="사각형_154" data-name="사각형 154" transform="translate(0.197 24.557)" fill="#01509f" stroke="#fff" stroke-width="1.5">
          <rect width="44" height="29" rx="4" stroke="none"/>
          <rect x="0.75" y="0.75" width="42.5" height="27.5" rx="3.25" fill="none"/>
        </g>
        <line id="선_100" data-name="선 100" y2="4.609" transform="translate(14.673 52.844)" fill="none" stroke="#fff" stroke-linecap="round" stroke-width="1.5"/>
        <line id="선_103" data-name="선 103" y2="4.609" transform="translate(28.601 52.844)" fill="none" stroke="#fff" stroke-linecap="round" stroke-width="1.5"/>
        <line id="선_101" data-name="선 101" x2="21.507" transform="translate(10.986 57.452)" fill="none" stroke="#fff" stroke-linecap="round" stroke-width="1.5"/>
        <line id="선_102" data-name="선 102" x2="43.014" transform="translate(0.54 45.681)" fill="none" stroke="#fff" stroke-width="1.5"/>
        <path id="패스_195" data-name="패스 195" d="M7.242,7.242,28.881,0,23.087,22.678,0,28.471Z" transform="translate(21.554 0) rotate(45)" fill="#01509f" stroke="#fff" stroke-linecap="round" stroke-linejoin="round" stroke-width="1.5"/>
        <path id="패스_196" data-name="패스 196" d="M12.088,0A12.088,12.088,0,0,1,24.176,12.088c0,6.449-3.067-2.248-11.315,4.853-.15.008-.546,0-.773,0-.28,0-.559-.01-.9-.033C5.351,9.634,0,18.483,0,12.088A12.088,12.088,0,0,1,12.088,0Z" transform="translate(9.55 16.663)" fill="#01509f"/>
        <rect id="사각형_155" data-name="사각형 155" width="2.664" height="13.318" transform="translate(35.958 15.37)" fill="#01509f"/>
        <g id="패스_197" data-name="패스 197" transform="translate(11.294 19.108)" fill="#01509f">
          <path d="M 10.7238302230835 13.75187492370605 C 10.61489486694336 13.75173854827881 10.47851657867432 13.75002861022949 10.3076229095459 13.74666404724121 L 10.28937339782715 13.74630355834961 C 10.12837886810303 13.74312782287598 10.03078269958496 13.74120330810547 9.943007469177246 13.73801136016846 C 8.433937072753906 11.96297740936279 6.768282890319824 11.0988941192627 4.860183238983154 11.0988941192627 C 3.894503355026245 11.0988941192627 3.023643255233765 11.32082366943359 2.323893308639526 11.49915409088135 C 1.873403310775757 11.61395359039307 1.447893381118774 11.72239398956299 1.1689532995224 11.72239398956299 C 0.9947333335876465 11.72239398956299 0.9748733639717102 11.6903133392334 0.9448033571243286 11.64176368713379 C 0.872053325176239 11.52428340911865 0.7500033378601074 11.19944381713867 0.7500033378601074 10.34376335144043 C 0.7500033378601074 5.053743839263916 5.053743362426758 0.7500036954879761 10.34376335144043 0.7500036954879761 C 15.6337833404541 0.7500036954879761 19.93752288818359 5.053743839263916 19.93752288818359 10.34376335144043 C 19.93752288818359 11.27607440948486 19.85480880737305 11.64028739929199 19.80476951599121 11.77526569366455 C 19.64676094055176 11.75930881500244 19.38895225524902 11.68523788452148 19.11782264709473 11.60733413696289 C 18.51328277587891 11.43363380432129 17.68534278869629 11.19574356079102 16.6606330871582 11.19574356079102 C 14.72640705108643 11.19574356079102 12.78227043151855 12.03226280212402 10.7238302230835 13.75187492370605 Z" stroke="none"/>
          <path d="M 10.34376335144043 1.500003814697266 C 5.467293739318848 1.500003814697266 1.500003814697266 5.467293739318848 1.500003814697266 10.34376335144043 C 1.500003814697266 10.59360599517822 1.511405944824219 10.78145408630371 1.526315689086914 10.92027187347412 C 1.713212966918945 10.88080978393555 1.933559417724609 10.8246545791626 2.138673782348633 10.77238368988037 C 2.879034042358398 10.58370399475098 3.800434112548828 10.3488941192627 4.860173225402832 10.3488941192627 C 5.891513824462891 10.3488941192627 6.878243446350098 10.5800838470459 7.792933464050293 11.03603363037109 C 8.670740127563477 11.47359085083008 9.508342742919922 12.13151359558105 10.28962230682373 12.99615669250488 C 10.29439544677734 12.99625110626221 10.29924774169922 12.99634742736816 10.30414295196533 12.99644374847412 L 10.32236289978027 12.99680328369141 C 10.37049674987793 12.99775218963623 10.41572380065918 12.99856567382812 10.45822811126709 12.99924468994141 C 12.57915306091309 11.28201770782471 14.61268615722656 10.44574356079102 16.6606330871582 10.44574356079102 C 17.70750427246094 10.44574356079102 18.54535484313965 10.66426658630371 19.17768287658691 10.84430885314941 C 19.1837215423584 10.70549964904785 19.18752288818359 10.54010200500488 19.18752288818359 10.34376335144043 C 19.18752288818359 5.467293739318848 15.22023391723633 1.500003814697266 10.34376335144043 1.500003814697266 M 10.34376335144043 3.814697265625e-06 C 16.05646324157715 3.814697265625e-06 20.68752288818359 4.631063461303711 20.68752288818359 10.34376335144043 C 20.68752288818359 12.07062721252441 20.43043327331543 12.52842140197754 19.86096572875977 12.52842140197754 C 19.21852493286133 12.52842140197754 18.1778507232666 11.94573974609375 16.6606330871582 11.94573974609375 C 15.22499465942383 11.94573974609375 13.36279487609863 12.46685409545898 11.00535297393799 14.49651336669922 C 10.94179630279541 14.50011825561523 10.85392761230469 14.50188446044922 10.73778247833252 14.50188446044922 C 10.61998176574707 14.50188446044922 10.47309017181396 14.50006866455078 10.29283332824707 14.49651336669922 C 9.934853553771973 14.48945331573486 9.865803718566895 14.48834419250488 9.573443412780762 14.46826362609863 C 7.904282569885254 12.38803195953369 6.281190872192383 11.8488941192627 4.860175132751465 11.8488941192627 C 3.33172607421875 11.8488941192627 2.036928176879883 12.47238922119141 1.168949127197266 12.47238922119141 C 0.429473876953125 12.47238922119141 3.814697265625e-06 12.01993370056152 3.814697265625e-06 10.34376335144043 C 3.814697265625e-06 4.631063461303711 4.631063461303711 3.814697265625e-06 10.34376335144043 3.814697265625e-06 Z" stroke="none" fill="#fff"/>
        </g>
        <g id="그룹_155" data-name="그룹 155" transform="translate(34.271 17.288)">
          <line id="선_63" data-name="선 63" y2="13.109" transform="translate(1.434)" fill="none" stroke="#fff" stroke-linecap="round" stroke-width="1.5"/>
          <line id="선_64" data-name="선 64" y1="5.121" x2="1.434" transform="translate(0 12.41)" fill="none" stroke="#fff" stroke-linecap="round" stroke-width="1.5"/>
          <line id="선_65" data-name="선 65" x1="1.434" y1="5.121" transform="translate(1.434 12.41)" fill="none" stroke="#fff" stroke-linecap="round" stroke-width="1.5"/>
        </g>
      </g>
    </g>
  </g>
</svg>
